<svg width="18" height="12" viewBox="0 0 18 12" fill="none" xmlns="http://www.w3.org/2000/svg">
<path d="M12.75 3.9L16.66 1.16303C16.8296 1.04426 17.0635 1.08553 17.1822 1.2552C17.2263 1.31823 17.25 1.39331 17.25 1.47025V10.5298C17.25 10.7368 17.0821 10.9048 16.875 10.9048C16.798 10.9048 16.723 10.8811 16.66 10.837L12.75 8.1V11.25C12.75 11.6642 12.4142 12 12 12H1.5C1.08579 12 0.75 11.6642 0.75 11.25V0.75C0.75 0.33579 1.08579 0 1.5 0H12C12.4142 0 12.75 0.33579 12.75 0.75V3.9ZM12.75 6.26902L15.75 8.36903V3.63098L12.75 5.73098V6.26902ZM2.25 1.5V10.5H11.25V1.5H2.25ZM3.75 3H5.25V4.5H3.75V3Z" fill="white"/>
</svg>
