<svg width="12" height="12" viewBox="0 0 12 12" fill="none" xmlns="http://www.w3.org/2000/svg">
<path d="M2.79199 9.2089L7.16699 7.16724L9.20866 2.79224L4.83366 4.8339L2.79199 9.2089ZM6.00033 6.5839C5.83505 6.5839 5.69651 6.528 5.5847 6.4162C5.4729 6.30439 5.41699 6.16585 5.41699 6.00057C5.41699 5.83529 5.4729 5.69675 5.5847 5.58495C5.69651 5.47314 5.83505 5.41724 6.00033 5.41724C6.1656 5.41724 6.30415 5.47314 6.41595 5.58495C6.52776 5.69675 6.58366 5.83529 6.58366 6.00057C6.58366 6.16585 6.52776 6.30439 6.41595 6.4162C6.30415 6.528 6.1656 6.5839 6.00033 6.5839ZM6.00033 11.8339C5.19338 11.8339 4.43505 11.6808 3.72533 11.3745C3.0156 11.0683 2.39824 10.6527 1.87324 10.1277C1.34824 9.60265 0.932617 8.98529 0.626367 8.27557C0.320117 7.56585 0.166992 6.80751 0.166992 6.00057C0.166992 5.19363 0.320117 4.43529 0.626367 3.72557C0.932617 3.01585 1.34824 2.39849 1.87324 1.87349C2.39824 1.34849 3.0156 0.932861 3.72533 0.626611C4.43505 0.320361 5.19338 0.167236 6.00033 0.167236C6.80727 0.167236 7.5656 0.320361 8.27533 0.626611C8.98505 0.932861 9.60241 1.34849 10.1274 1.87349C10.6524 2.39849 11.068 3.01585 11.3743 3.72557C11.6805 4.43529 11.8337 5.19363 11.8337 6.00057C11.8337 6.80751 11.6805 7.56585 11.3743 8.27557C11.068 8.98529 10.6524 9.60265 10.1274 10.1277C9.60241 10.6527 8.98505 11.0683 8.27533 11.3745C7.5656 11.6808 6.80727 11.8339 6.00033 11.8339ZM6.00033 10.6672C7.3031 10.6672 8.40658 10.2152 9.31074 9.31099C10.2149 8.40682 10.667 7.30335 10.667 6.00057C10.667 4.69779 10.2149 3.59432 9.31074 2.69015C8.40658 1.78599 7.3031 1.3339 6.00033 1.3339C4.69755 1.3339 3.59408 1.78599 2.68991 2.69015C1.78574 3.59432 1.33366 4.69779 1.33366 6.00057C1.33366 7.30335 1.78574 8.40682 2.68991 9.31099C3.59408 10.2152 4.69755 10.6672 6.00033 10.6672Z" fill="#00764B"/>
</svg>
