<svg width="14" height="14" viewBox="0 0 14 14" fill="none" xmlns="http://www.w3.org/2000/svg">
<path d="M5.3335 10.0004L10.0002 7.00041L5.3335 4.00041V10.0004ZM7.00016 13.6671C6.07794 13.6671 5.21127 13.4921 4.40016 13.1421C3.58905 12.7921 2.8835 12.3171 2.2835 11.7171C1.6835 11.1171 1.2085 10.4115 0.858496 9.60041C0.508496 8.7893 0.333496 7.92263 0.333496 7.00041C0.333496 6.07819 0.508496 5.21152 0.858496 4.40041C1.2085 3.5893 1.6835 2.88374 2.2835 2.28374C2.8835 1.68374 3.58905 1.20874 4.40016 0.85874C5.21127 0.50874 6.07794 0.33374 7.00016 0.33374C7.92239 0.33374 8.78905 0.50874 9.60016 0.85874C10.4113 1.20874 11.1168 1.68374 11.7168 2.28374C12.3168 2.88374 12.7918 3.5893 13.1418 4.40041C13.4918 5.21152 13.6668 6.07819 13.6668 7.00041C13.6668 7.92263 13.4918 8.7893 13.1418 9.60041C12.7918 10.4115 12.3168 11.1171 11.7168 11.7171C11.1168 12.3171 10.4113 12.7921 9.60016 13.1421C8.78905 13.4921 7.92239 13.6671 7.00016 13.6671Z" fill="#1967D2"/>
</svg>
