<svg width="16" height="14" viewBox="0 0 16 14" fill="none" xmlns="http://www.w3.org/2000/svg">
<path d="M0.5 0.99505C0.5 0.58357 0.841483 0.25 1.24385 0.25H14.7561C15.167 0.25 15.5 0.583713 15.5 0.99505V13.0049C15.5 13.4164 15.1585 13.75 14.7561 13.75H1.24385C0.833038 13.75 0.5 13.4163 0.5 13.0049V0.99505ZM5 1.75V12.25H11V1.75H5ZM2 1.75V3.25H3.5V1.75H2ZM12.5 1.75V3.25H14V1.75H12.5ZM2 4.75V6.25H3.5V4.75H2ZM12.5 4.75V6.25H14V4.75H12.5ZM2 7.75V9.25H3.5V7.75H2ZM12.5 7.75V9.25H14V7.75H12.5ZM2 10.75V12.25H3.5V10.75H2ZM12.5 10.75V12.25H14V10.75H12.5Z" fill="white"/>
</svg>
