<svg width="18" height="15" viewBox="0 0 18 15" fill="none" xmlns="http://www.w3.org/2000/svg">
<path d="M0.75 9.875C0.75 8.1287 1.66822 6.59683 3.04819 5.7359C3.42352 2.783 5.94514 0.5 9 0.5C12.0548 0.5 14.5765 2.783 14.9518 5.7359C16.3318 6.59683 17.25 8.1287 17.25 9.875C17.25 12.4412 15.2671 14.5443 12.75 14.7358L5.25 14.75C2.73284 14.5443 0.75 12.4412 0.75 9.875ZM12.6362 13.2401C14.3863 13.107 15.75 11.6421 15.75 9.875C15.75 8.69525 15.1413 7.62215 14.1578 7.00857L13.5535 6.63155L13.4638 5.92504C13.1801 3.69352 11.2716 2 9 2C6.72837 2 4.81985 3.69352 4.53622 5.92504L4.44642 6.63155L3.84216 7.00857C2.85867 7.62215 2.25 8.69525 2.25 9.875C2.25 11.6421 3.61375 13.107 5.36378 13.2401L5.49375 13.25H12.5062L12.6362 13.2401ZM9.75 8.75V11.75H8.25V8.75H6L9 5L12 8.75H9.75Z" fill="white"/>
</svg>
